<?xml version="1.0"?>
<svg version="1.0" xmlns="http://www.w3.org/2000/svg" width="982.000000pt" height="888.000000pt" viewBox="0 0 982.000000 888.000000" preserveAspectRatio="xMidYMid meet">
	<g transform="translate(0.000000,888.000000) scale(0.100000,-0.100000)" fill="none" stroke="none">
		<circle cx="5050" cy="4500" r="4200" stroke="black" stroke-width="3" fill="#2196f3" />
		<path
			fill="#1e88e5"
			d="M4640 8869 c-583 -51 -1296 -288 -1830 -609 -589 -353 -1044 -788
			-1445 -1380 -54 -80 -100 -146 -101 -148 -1 -2 -59 -15 -129 -28 -288 -57
			-511 -172 -711 -369 -122 -120 -203 -233 -280 -390 -100 -204 -134 -357 -134
			-597 0 -239 33 -381 132 -577 113 -226 271 -423 415 -519 74 -50 76 -54 103
			-272 28 -221 46 -333 76 -470 230 -1051 823 -1979 1674 -2620 629 -474 1411
			-782 2200 -866 211 -23 654 -23 885 0 769 77 1465 326 2085 747 80 54 192 138
			250 185 133 110 608 586 723 724 181 216 405 583 552 900 389 841 505 1731
			344 2643 -10 62 -47 224 -80 360 l-62 249 75 76 c104 107 175 194 232 285 258
			414 262 1000 9 1405 -105 170 -275 344 -445 458 -232 156 -488 224 -798 211
			-219 -9 -352 -44 -577 -152 l-131 -63 -96 64 c-470 315 -916 510 -1480 649
			-306 75 -411 87 -906 105 -311 11 -414 11 -550 -1z m875 -344 c1004 -121 1884
			-562 2560 -1285 404 -432 702 -934 895 -1509 111 -330 158 -536 180 -796 13
			-153 13 -900 0 -1025 -40 -382 -203 -900 -416 -1320 -549 -1082 -1527 -1855
			-2707 -2140 -282 -68 -491 -97 -786 -109 -1138 -47 -2240 382 -3051 1188 -596
			593 -1002 1362 -1155 2186 -14 77 -28 177 -32 224 l-6 84 34 -6 c206 -37 533
			-5 679 3 517 136 939 590 1017 1095 18 122 13 443 -10 545 -55 242 -182 466
			-371 656 -172 172 -314 258 -571 349 -66 24 -119 47 -117 51 2 5 50 72 107
			149 320 435 735 814 1186 1085 557 335 1175 535 1824 589 154 13 584 5 740
			-14z"/>
		<path fill="#2b3b47" d="M7069 5980 c-31 -5 -86 -21 -123 -36 -358 -143 -509 -544 -331 -882
			114 -218 308 -332 564 -332 186 0 314 53 442 181 90 89 148 196 173 321 20 96
			20 145 1 245 -45 238 -232 434 -465 487 -88 20 -193 26 -261 16z"/>
		<path
			fill="#2b3b47"
			d="M5821 4079 c-151 -18 -378 -96 -521 -179 -289 -169 -513 -450 -615
			-773 -50 -158 -69 -300 -62 -477 3 -80 12 -178 21 -218 139 -635 706 -1092
			1356 -1092 515 0 984 298 1225 780 102 203 128 329 128 605 0 216 -12 293 -70
			440 -82 211 -195 390 -328 521 -292 289 -729 440 -1134 393z"/>
		<path fill="#2b3b47" d="M2982 3730 c-186 -34 -362 -172 -453 -354 -166 -336 4 -747 358 -865
			134 -45 317 -45 435 -1 131 49 275 181 343 314 65 128 81 323 39 468 -38 129
			-156 280 -275 351 -126 74 -313 110 -447 87z"/>
	</g>
</svg>
